<svg xmlns="http://www.w3.org/2000/svg" width="11.575" height="26.73" viewBox="0 0 11.575 26.73">
  <g id="Group_60" data-name="Group 60" transform="translate(-1.103)">
    <path id="Path_69" data-name="Path 69" d="M169.689,40.19a3.909,3.909,0,1,0,0,7.819h.036V40.192Z" transform="translate(-157.045 -40.19)" fill="#1bc0dd"/>
    <path id="Path_70" data-name="Path 70" d="M134.949,80.072a1.63,1.63,0,0,0-.3.015l-8.685,1.375a1.451,1.451,0,0,0-1.207,1.66h0a1.451,1.451,0,0,0,1.66,1.207l7.563-1.2.685,6.453-.894,7.625a1.173,1.173,0,0,0,1.236,1.1h2.411V80.07h-2.409Z" transform="translate(-124.735 -71.583)" fill="#1bc0dd"/>
  </g>
</svg>
