<svg xmlns="http://www.w3.org/2000/svg" width="11.575" height="26.73" viewBox="0 0 11.575 26.73">
  <g id="Group_59" data-name="Group 59" transform="translate(0 0.002)">
    <path id="Path_67" data-name="Path 67" d="M86.777,81.453l-8.623-1.364a1.632,1.632,0,0,0-.249-.017l-.038,0H75.53V98.308h2.337a1.173,1.173,0,0,0,1.236-1.1V83.179l7.219,1.143a1.451,1.451,0,0,0,1.66-1.207h0A1.449,1.449,0,0,0,86.777,81.453Z" transform="translate(-75.53 -71.585)" fill="#da1f26"/>
    <path id="Path_68" data-name="Path 68" d="M79.4,44.107A3.908,3.908,0,0,0,75.53,40.2v7.815A3.907,3.907,0,0,0,79.4,44.107Z" transform="translate(-75.53 -40.2)" fill="#da1f26"/>
  </g>
</svg>
