<svg xmlns="http://www.w3.org/2000/svg" width="57.222" height="64.91" viewBox="0 0 57.222 64.91"><g transform="translate(-79 -26.09)"><path d="M427.311,455.226c-.034-.02-.2-.147-.446-.719a17.512,17.512,0,0,1-.6-1.869c-.523-1.836-1.063-3.734-2.556-3.734s-2.033,1.9-2.556,3.73a17.461,17.461,0,0,1-.6,1.867c-.239.565-.409.695-.445.717-.107-.012-.365-.2-.708-.832a10,10,0,0,1-.481-1.058,4.578,4.578,0,1,0-1.469.578c.625,1.58,1.384,2.89,2.67,2.89,1.493,0,2.033-1.9,2.556-3.73a17.426,17.426,0,0,1,.6-1.867.488.488,0,1,1,.868,0,17.5,17.5,0,0,1,.6,1.869c.523,1.836,1.063,3.734,2.556,3.734a.789.789,0,0,0,.013-1.579Zm-13.823-5.835a3.031,3.031,0,1,1,4.865,2.411,7.535,7.535,0,0,0-1.276-2.672.789.789,0,0,0-1.116,1.116,9.016,9.016,0,0,1,.929,2.153,2.985,2.985,0,0,1-.371.023,3.034,3.034,0,0,1-3.031-3.031Z" transform="translate(-312.387 -392.251)" fill="#e1e2ef"/><path d="M135.572,69.218a23.385,23.385,0,0,0-4.248-6.653,49.071,49.071,0,0,0-3.832-3.956c1.18-1.13,2.261-2.261,3.224-3.383a23.39,23.39,0,0,0,4.248-6.653c.88-2.324.868-4.311-.036-5.9s-2.589-2.6-5.007-2.984a22.547,22.547,0,0,0-7.786.416c-1.442.289-2.95.677-4.508,1.154a49.9,49.9,0,0,0-1.413-5.176,23.486,23.486,0,0,0-3.539-7.069c-1.539-1.937-3.235-2.92-5.043-2.92s-3.5.983-5.043,2.92a23.472,23.472,0,0,0-3.539,7.069,49.913,49.913,0,0,0-1.415,5.189A46.705,46.705,0,0,0,93.089,40.1a22.531,22.531,0,0,0-7.786-.416c-2.419.387-4.1,1.391-5.007,2.984s-.916,3.579-.036,5.9a23.385,23.385,0,0,0,4.248,6.653c.963,1.122,2.042,2.252,3.222,3.382A49.25,49.25,0,0,0,83.9,62.563a23.39,23.39,0,0,0-4.248,6.653c-.88,2.324-.868,4.311.036,5.9s2.589,2.6,5.007,2.984a15.346,15.346,0,0,0,2.423.179,27.652,27.652,0,0,0,5.363-.595,47.816,47.816,0,0,0,5.26-1.391c.38,1.67.817,3.246,1.308,4.707a23.487,23.487,0,0,0,3.539,7.069c1.539,1.937,3.235,2.92,5.043,2.92s3.5-.983,5.043-2.92A23.472,23.472,0,0,0,116.213,81c.489-1.457.925-3.029,1.3-4.694a47.757,47.757,0,0,0,5.224,1.379,27.652,27.652,0,0,0,5.363.595,15.339,15.339,0,0,0,2.423-.179c2.419-.387,4.1-1.391,5.007-2.984s.916-3.579.036-5.9ZM122.614,42.58a25.286,25.286,0,0,1,4.883-.544c2.7,0,4.573.647,5.282,1.9,1.081,1.9-.389,5.505-3.931,9.633a45.735,45.735,0,0,1-3.229,3.372,76.953,76.953,0,0,0-6.5-4.97,79.037,79.037,0,0,0-1-8.225,44.868,44.868,0,0,1,4.495-1.163ZM111.926,67.032q-2.157,1.267-4.315,2.376-2.151-1.107-4.313-2.375c-1.637-.962-3.221-1.962-4.737-2.988-.108-1.8-.164-3.637-.164-5.5,0-1.759.05-3.494.146-5.191q2-1.332,4.148-2.593c1.64-.964,3.286-1.86,4.92-2.685,1.635.825,3.281,1.722,4.923,2.686q2.162,1.27,4.189,2.62c.095,1.689.144,3.414.144,5.163,0,1.857-.055,3.687-.163,5.474-1.529,1.036-3.127,2.045-4.779,3.016Zm4.529.162c-.2,2.014-.462,3.956-.794,5.8-1.715-.64-3.475-1.382-5.258-2.216q1.383-.749,2.765-1.56Q114.848,68.231,116.454,67.194ZM104.82,70.78c-1.769.828-3.516,1.564-5.219,2.2-.329-1.833-.593-3.761-.789-5.759q1.584,1.022,3.245,2Q103.437,70.03,104.82,70.78Zm-8.833-8.549c-1.606-1.18-3.116-2.384-4.511-3.6,1.4-1.185,2.905-2.36,4.5-3.509q-.06,1.692-.062,3.417,0,1.863.072,3.689ZM101.45,48.57q-1.359.8-2.67,1.63c.184-1.954.433-3.843.742-5.644,1.71.617,3.468,1.337,5.252,2.152Q103.112,47.595,101.45,48.57Zm9-1.862c1.8-.821,3.57-1.546,5.292-2.166.313,1.814.564,3.716.748,5.686q-1.33-.845-2.712-1.658-1.661-.976-3.327-1.862Zm8.841,8.447c1.58,1.14,3.073,2.3,4.459,3.479-1.383,1.2-2.879,2.4-4.469,3.566q.07-1.809.071-3.658Q119.35,56.833,119.289,55.155ZM101.4,36.9c1.741-5.185,4.072-8.281,6.233-8.281s4.492,3.1,6.233,8.281a47.805,47.805,0,0,1,1.391,5.143,74.167,74.167,0,0,0-7.645,3.224A74.259,74.259,0,0,0,100,42.054,47.841,47.841,0,0,1,101.4,36.9ZM86.376,53.566c-3.542-4.127-5.012-7.728-3.931-9.633.708-1.248,2.584-1.9,5.282-1.9a25.241,25.241,0,0,1,4.883.544,44.7,44.7,0,0,1,4.532,1.174,78.809,78.809,0,0,0-1,8.183,76.988,76.988,0,0,0-6.542,5,45.825,45.825,0,0,1-3.228-3.371ZM92,75.21c-5.284,1.058-9.084.553-10.164-1.352s.389-5.505,3.931-9.633a47.032,47.032,0,0,1,3.813-3.918,75.056,75.056,0,0,0,6.587,5.141,77.868,77.868,0,0,0,1.063,8.366A46.071,46.071,0,0,1,92,75.211Zm21.863,4.977c-1.741,5.185-4.072,8.281-6.233,8.281s-4.492-3.1-6.233-8.281a46.956,46.956,0,0,1-1.3-4.706,76,76,0,0,0,7.508-3.253,76.04,76.04,0,0,0,7.546,3.268,47.088,47.088,0,0,1-1.292,4.691Zm19.521-6.329c-1.081,1.9-4.881,2.41-10.164,1.352a46.041,46.041,0,0,1-5.191-1.384,77.953,77.953,0,0,0,1.067-8.409,74.948,74.948,0,0,0,6.543-5.111,46.963,46.963,0,0,1,3.814,3.92C133,68.353,134.466,71.954,133.386,73.859Z" fill="#18c0de"/><g transform="translate(79.53 26.091)"><path d="M944.036,281.122a1.266,1.266,0,1,1,1.266-1.266A1.268,1.268,0,0,1,944.036,281.122Z" transform="translate(-889.755 -262.646)" fill="#e1e2ef"/><circle cx="1.266" cy="1.266" r="1.266" transform="translate(53.637 47.137)" fill="#e1e2ef"/><circle cx="1.266" cy="1.266" r="1.266" transform="translate(26.838 62.377)" fill="#e1e2ef"/><circle cx="1.266" cy="1.266" r="1.266" transform="translate(0 47.136)" fill="#e1e2ef"/><path d="M98.446,281.182a1.266,1.266,0,1,1,1.266-1.266A1.268,1.268,0,0,1,98.446,281.182Z" transform="translate(-96.562 -262.702)" fill="#e1e2ef"/><path d="M521.586,28.632a1.266,1.266,0,1,1,1.266-1.266A1.268,1.268,0,0,1,521.586,28.632Z" transform="translate(-493.482 -26.1)" fill="#e1e2ef"/></g></g></svg>