<svg xmlns="http://www.w3.org/2000/svg" width="161.687" height="69.827" viewBox="0 0 161.687 69.827">
  <g id="HW_Logos-06" transform="translate(-75.53 -40.19)">
    <g id="Group_62" data-name="Group 62" transform="translate(75.53 40.19)">
      <g id="Group_58" data-name="Group 58" transform="translate(26.732 6.301)">
        <path id="Path_61" data-name="Path 61" d="M218.929,73.863A9.192,9.192,0,0,0,211.17,69.8a10.216,10.216,0,0,0-.074,20.426,9.852,9.852,0,0,0,7.834-3.807v3.331h2.452V70.313h-2.452Zm-7.578,14.093a7.8,7.8,0,0,1-7.651-7.906,7.707,7.707,0,1,1,7.651,7.906Z" transform="translate(-201.14 -69.8)" fill="#1bc0dd"/>
        <path id="Path_62" data-name="Path 62" d="M320.735,73.131V70.313H318.1V89.749h2.635V82.356a26.706,26.706,0,0,1,.4-5.893c.732-2.673,2.379-4.246,4.209-4.246a2.963,2.963,0,0,1,1.317.366l1.317-2.124a3.929,3.929,0,0,0-2.232-.66C323.772,69.8,322.2,71.009,320.735,73.131Z" transform="translate(-293.209 -69.8)" fill="#1bc0dd"/>
        <path id="Path_63" data-name="Path 63" d="M401.589,69.8c-2.856,0-5.418,1.575-7.138,4.686-1.062-3.148-3.184-4.686-6.15-4.686-2.781,0-4.942,1.354-6.661,3.843V70.313h-2.49V89.749h2.49V81.513c0-2.928.255-5.235,1.647-7.027a5.807,5.807,0,0,1,4.539-2.269,4.214,4.214,0,0,1,4.393,3.954c.036.879.183,2.124.183,3.624v9.956h2.49V81.26a13.7,13.7,0,0,1,.7-5.088,5.921,5.921,0,0,1,5.527-3.954,4.2,4.2,0,0,1,4.392,3.624c.036.732.219,1.866.219,3.294V89.751h2.49V78.221C408.214,72.692,405.616,69.8,401.589,69.8Z" transform="translate(-341.267 -69.8)" fill="#1bc0dd"/>
        <path id="Path_64" data-name="Path 64" d="M546.5,69.8a10.232,10.232,0,1,0,10.139,10.285A10.146,10.146,0,0,0,546.5,69.8Zm0,18.047a7.532,7.532,0,0,1-7.576-7.723,7.583,7.583,0,1,1,15.152,0A7.554,7.554,0,0,1,546.5,87.847Z" transform="translate(-465.02 -69.8)" fill="#1bc0dd"/>
        <path id="Path_65" data-name="Path 65" d="M663.085,69.8c-2.856,0-5.271,1.354-7.285,3.99V70.313h-2.49V89.749h2.49V81.586c0-3.075.219-4.978,1.683-6.882a6.237,6.237,0,0,1,5.125-2.635c3.771,0,5.2,2.526,5.2,7.1V89.749h2.49V78.84C670.295,72.728,667.33,69.8,663.085,69.8Z" transform="translate(-557.081 -69.8)" fill="#1bc0dd"/>
        <path id="Path_66" data-name="Path 66" d="M764.234,72.21l-6.48,14.972-6.7-14.972H748.42L756.4,90.182l-3.733,8.566H755.3l11.6-26.538Z" transform="translate(-631.95 -71.697)" fill="#1bc0dd"/>
      </g>
      <g id="Group_61" data-name="Group 61">
        <g id="Group_59" data-name="Group 59" transform="translate(0 0.002)">
          <path id="Path_67" data-name="Path 67" d="M86.777,81.453l-8.623-1.364a1.632,1.632,0,0,0-.249-.017l-.038,0H75.53V98.308h2.337a1.173,1.173,0,0,0,1.236-1.1V83.179l7.219,1.143a1.451,1.451,0,0,0,1.66-1.207h0A1.449,1.449,0,0,0,86.777,81.453Z" transform="translate(-75.53 -71.585)" fill="#da1f26"/>
          <path id="Path_68" data-name="Path 68" d="M79.4,44.107A3.908,3.908,0,0,0,75.53,40.2v7.815A3.907,3.907,0,0,0,79.4,44.107Z" transform="translate(-75.53 -40.2)" fill="#da1f26"/>
        </g>
        <g id="Group_60" data-name="Group 60" transform="translate(10.472)">
          <path id="Path_69" data-name="Path 69" d="M169.689,40.19a3.909,3.909,0,1,0,0,7.819h.036V40.192Z" transform="translate(-157.045 -40.19)" fill="#1bc0dd"/>
          <path id="Path_70" data-name="Path 70" d="M134.949,80.072a1.63,1.63,0,0,0-.3.015l-8.685,1.375a1.451,1.451,0,0,0-1.207,1.66h0a1.451,1.451,0,0,0,1.66,1.207l7.563-1.2.685,6.453-.894,7.625a1.173,1.173,0,0,0,1.236,1.1h2.411V80.07h-2.409Z" transform="translate(-124.735 -71.583)" fill="#1bc0dd"/>
        </g>
      </g>
    </g>
    <g id="Group_63" data-name="Group 63" transform="translate(75.53 80.187)">
      <path id="Path_71" data-name="Path 71" d="M268.532,270.129a9.824,9.824,0,0,0-8.289-4.339,10.911,10.911,0,0,0-.079,21.816,10.518,10.518,0,0,0,8.366-4.067V287.1h2.62v-20.76h-2.62v3.792Zm-8.093,15.052a8.326,8.326,0,0,1-8.17-8.445,8.232,8.232,0,1,1,8.17,8.445Z" transform="translate(-212.5 -257.775)" fill="#da1f26"/>
      <rect id="Rectangle_49" data-name="Rectangle 49" width="2.658" height="20.76" transform="translate(64.319 8.562)" fill="#da1f26"/>
      <path id="Path_72" data-name="Path 72" d="M375.72,228.13a2.186,2.186,0,0,0-2.19,2.19,2.22,2.22,0,0,0,2.19,2.228,2.254,2.254,0,0,0,2.228-2.228A2.22,2.22,0,0,0,375.72,228.13Z" transform="translate(-310.111 -228.13)" fill="#da1f26"/>
      <path id="Path_73" data-name="Path 73" d="M416.423,231.99h-2.658v7.74H410.09v2.347h3.675V260.49h2.658V242.077h4.263V239.73h-4.263Z" transform="translate(-338.89 -231.169)" fill="#da1f26"/>
      <path id="Path_74" data-name="Path 74" d="M493.012,270.129a9.823,9.823,0,0,0-8.289-4.339,10.911,10.911,0,0,0-.079,21.816,10.518,10.518,0,0,0,8.366-4.067V287.1h2.62v-20.76h-2.618Zm-8.093,15.052a8.326,8.326,0,0,1-8.17-8.445,8.232,8.232,0,1,1,8.17,8.445Z" transform="translate(-389.207 -257.775)" fill="#da1f26"/>
      <path id="Path_75" data-name="Path 75" d="M614.339,238.168c-3.088,0-5.629,1.447-7.781,4.261V230.7H603.9v28.775h2.658v-8.719c0-3.324.275-5.357,1.8-7.351a6.662,6.662,0,0,1,5.474-2.816c4.026,0,5.512,2.7,5.512,7.585v11.3H622V247.549C622,241.334,618.835,238.168,614.339,238.168Z" transform="translate(-491.454 -230.153)" fill="#da1f26"/>
      <path id="Path_76" data-name="Path 76" d="M730.542,266.337v3.792a9.824,9.824,0,0,0-8.289-4.339,10.911,10.911,0,0,0-.079,21.816,10.518,10.518,0,0,0,8.366-4.067V287.1h2.62v-20.76Zm-8.091,18.845a8.326,8.326,0,0,1-8.17-8.445,8.232,8.232,0,1,1,8.17,8.445Z" transform="translate(-576.187 -257.775)" fill="#da1f26"/>
      <path id="Path_77" data-name="Path 77" d="M116.865,230.863c-.477-2.043-3.348-3.12-6.412-2.407-2.5.583-4.363,2.181-4.7,3.86l-5,17.344L92.8,229.412h-.587l-8.068,20.249-5.718-20.249h-2.9l7.951,28.124h.509l8.538-21.269,8.3,21.269h.549l6.306-21.98a7.154,7.154,0,0,0,4.49.3C115.244,235.143,117.342,232.906,116.865,230.863Z" transform="translate(-75.53 -228.214)" fill="#da1f26"/>
    </g>
  </g>
</svg>
