<svg xmlns="http://www.w3.org/2000/svg" width="23.152" height="26.725" viewBox="0 0 23.152 26.725"><g transform="translate(0 0.002)"><path d="M86.777,81.453l-8.623-1.364a1.632,1.632,0,0,0-.249-.017l-.038,0H75.53V98.308h2.337a1.173,1.173,0,0,0,1.236-1.1V83.179l7.219,1.143a1.451,1.451,0,0,0,1.66-1.207h0A1.449,1.449,0,0,0,86.777,81.453Z" transform="translate(-75.53 -71.585)" fill="#da1f26"/><path d="M79.4,44.107A3.908,3.908,0,0,0,75.53,40.2v7.815A3.907,3.907,0,0,0,79.4,44.107Z" transform="translate(-75.53 -40.2)" fill="#da1f26"/></g><g transform="translate(10.472)"><path d="M169.689,40.19a3.909,3.909,0,1,0,0,7.819h.036V40.192Z" transform="translate(-157.045 -40.19)" fill="#1bc0dd"/><path d="M134.949,80.072a1.63,1.63,0,0,0-.3.015l-8.685,1.375a1.451,1.451,0,0,0-1.207,1.66h0a1.451,1.451,0,0,0,1.66,1.207l7.563-1.2.685,6.453-.894,7.625a1.173,1.173,0,0,0,1.236,1.1h2.411V80.07h-2.409Z" transform="translate(-124.735 -71.583)" fill="#1bc0dd"/></g></svg>