<?xml version="1.0" encoding="utf-8"?>
<!-- Generator: Adobe Illustrator 28.0.0, SVG Export Plug-In . SVG Version: 6.00 Build 0)  -->
<svg version="1.1" id="Layer_1" xmlns="http://www.w3.org/2000/svg" xmlns:xlink="http://www.w3.org/1999/xlink" x="0px" y="0px"
	 viewBox="0 0 1080 583.1" style="enable-background:new 0 0 1080 583.1;" xml:space="preserve">
<style type="text/css">
	.st0{display:none;fill:#110E0E;enable-background:new    ;}
	.st1{enable-background:new    ;}
	.st2{fill:#E8E6E6;}
	.st3{fill:#DD0000;enable-background:new    ;}
	.st4{fill:#7489B0;enable-background:new    ;}
</style>
<rect class="st0" width="1080" height="583.1"/>
<g class="st1">
	<path class="st2" d="M27,89.2h81.2l2.5,34H107c-2.2-11.4-5.2-19.3-8.8-23.7S89.7,93,83.7,93H76v92.4h17v3.8H42.1v-3.8h17V93h-7.7
		c-6,0-10.8,2.2-14.5,6.6c-3.7,4.4-6.6,12.3-8.9,23.7h-3.6L27,89.2z"/>
	<path class="st2" d="M131.4,185.4V93h-11.1v-3.8H131c6.4,0,11.2-0.4,14.3-1.1v55.7h0.3c4.7-9.4,11.4-14.1,19.9-14.1
		c3.5,0,6.8,0.9,10.1,2.8c3.3,1.9,5.4,4.5,6.3,8c0.9,3.5,1.4,9.1,1.4,16.7v28.3h9.2v3.8h-32.1v-3.8h9.2v-29.7
		c0-8.1-0.2-13.8-0.6-17.2c-0.4-3.4-2.6-5.1-6.4-5.1c-4.1,0-7.6,1.9-10.4,5.6c-2.8,3.7-4.6,7.5-5.5,11.3c-0.8,3.9-1.2,10.2-1.2,18.9
		v16.2h9.2v3.8h-33v-3.8L131.4,185.4L131.4,185.4z"/>
	<path class="st2" d="M253.6,155.5h-35.9c-0.3,14.7,0.4,23.8,2.4,27.2c1.9,3.4,5.3,5.1,10.2,5.1c10,0,16.8-6.1,20.4-18.4h3.1
		c-1.6,7.4-4.5,12.9-8.9,16.4s-9.2,5.3-14.6,5.3c-7.6,0-14.3-3-19.9-8.9s-8.4-13.4-8.4-22.4c0-8.8,2.8-16.1,8.3-22.1
		s11.9-8.9,19.2-8.9c6.4,0,11.9,2.4,16.7,7.1C250.8,140.6,253.3,147.1,253.6,155.5z M217.7,152.1h20.7c0.4-3.5,0.6-6.2,0.6-8.1
		c0-8-3.4-11.9-10.3-11.9c-3.4,0-6.1,1-8,2.9c-1.9,1.9-2.9,4.5-2.9,7.8L217.7,152.1L217.7,152.1z"/>
</g>
<g class="st1">
	<g>
		<path class="st2" d="M142.3,272.3c0,10.3,0,15.5,0,25.9c0.8,29.4-16.9,50.9-46.6,52.6c-5.9,0.3-8.9,0.4-14.8,0.6
			c0,24.9,0,49.8,0,74.7c-10.4,0.4-20.8,0.6-31.2,0.6c0-66.3,0-132.5,0-198.8c15.4-0.1,30.7-0.5,46-1.2
			C124.8,225.3,143.2,242.7,142.3,272.3z M80.9,255.7c0,22.4,0,44.9,0,67.3c5.9-0.2,8.9-0.3,14.8-0.6c11,0.1,16.1-9.7,15.3-19.7
			c0-9.9,0-19.9,0-29.8c0-14.2-5.4-18.4-15.3-17.8C89.8,255.3,86.8,255.5,80.9,255.7z"/>
		<path class="st2" d="M156.8,221.6c10.4-1.1,20.9-2.5,31.2-3.9c0,56.8,0,113.6,0,170.4c17.2-2.5,34.3-5.2,51.4-8.2
			c0,9.5,0,18.9,0,28.4c-27.5,4.8-55,8.9-82.7,12.1C156.8,354.2,156.8,287.9,156.8,221.6z"/>
		<path class="st2" d="M354.1,383.9c-10.5,2.5-21,5-31.5,7.4c-1.8-11.6-3.6-23.2-5.4-34.9c-12.8,2.9-25.5,5.6-38.3,8.3
			c-1.8,12.4-3.6,24.8-5.4,37.2c-9.5,1.9-19.1,3.8-28.7,5.5c10.6-68.3,21.2-136.6,31.8-205c15.3-3.1,30.5-6.4,45.7-9.9
			C332.9,256.3,343.5,320.1,354.1,383.9z M282.9,336.9c10-2.1,20.1-4.2,30.1-6.5c-4.9-32.4-9.9-64.9-14.8-97.3
			c-0.2,0.1-0.3,0.1-0.6,0.1C292.7,267.8,287.8,302.4,282.9,336.9z"/>
		<path class="st2" d="M368.6,181.5c10.4-2.6,20.8-5.3,31.2-8c0,66.3,0,132.6,0,198.8c-10.4,2.7-20.8,5.3-31.2,8
			C368.6,314,368.6,247.8,368.6,181.5z"/>
		<path class="st2" d="M451,214.7c-0.2,0.1-0.3,0.1-0.6,0.2c0,48,0,96,0,144c-9.4,2.6-18.7,5.1-28.1,7.6c0-66.3,0-132.6,0-198.8
			c13.1-3.5,26.1-7,39.2-10.6c10.5,36.8,21,73.5,31.5,110.3c0.2-0.1,0.3-0.1,0.6-0.2c0-39.7,0-79.3,0-119c9.3-2.6,18.6-5.2,27.8-7.8
			c0,66.3,0,132.6,0,198.8c-10.7,3-21.4,6-32.1,9C476.5,303.6,463.8,259.2,451,214.7z"/>
		<path class="st2" d="M585.9,120c28-7.7,47.1,8.5,46,37.5c0,2.5,0,3.8,0,6.2c-9.8,2.6-19.7,5.3-29.5,8c0-3.3,0-4.9,0-8.2
			c0-14.2-5.7-18.1-15.6-15.3c-11.2,3.1-15.6,12.9-15.6,23.9c0,17.1,13.5,27.6,26.7,35.8c19.7,12.2,34.5,27.6,34.4,52.9
			c-0.2,29.5-18.3,54.5-46.6,62.7c-28,8-46.6-8.9-46.6-37c0-4.9,0-7.3,0-12.2c9.8-2.8,19.7-5.5,29.5-8.3c0,5.7,0,8.5,0,14.2
			c0,14.2,6.3,17.6,16.2,14.8c11.1-3.1,16.1-12.8,16.2-23.8c0.1-16.6-13.9-28.1-26.7-35.8c-19.7-11.9-34.3-27.6-34.4-52.6
			C539.8,153.5,556.9,128,585.9,120z"/>
		<path class="st2" d="M716,229.6c0.2-0.1,0.3-0.1,0.6-0.1c7-48.7,14-97.4,21-146.1c14.5-3.2,28.9-6.3,43.5-9.3
			c0,66.3,0,132.6,0,198.8c-9.9,2-19.7,4.1-29.5,6.2c0-47.5,0-95.1,0-142.6c-0.2,0.1-0.3,0.1-0.6,0.1c-7,49.1-14,98.2-21,147.3
			c-9.9,2.3-19.7,4.6-29.5,7c-7.6-45-15.1-90-22.7-135c-0.2,0.1-0.3,0.1-0.6,0.1c0,46.9,0,93.7,0,140.6c-9.1,2.3-18.2,4.6-27.3,7
			c0-66.3,0-132.6,0-198.8c14.5-3.8,29-7.5,43.5-11.1C700.8,139.2,708.4,184.4,716,229.6z"/>
		<path class="st2" d="M835,147.9c14.3-2.3,28.6-4.4,42.9-6.4c0,9.5,0,18.9,0,28.4c-14.3,1.9-28.6,4.1-42.9,6.4
			c0,19.4,0,38.8,0,58.2c18-2.9,35.9-5.5,54-7.8c0,9.5,0,18.9,0,28.4c-28.5,3.6-56.9,8.1-85.2,13.3c0-66.3,0-132.6,0-198.8
			C832,64.5,860.4,60,889,56.4c0,9.5,0,18.9,0,28.4c-18,2.3-36,4.9-54,7.8C835,111,835,129.5,835,147.9z"/>
		<path class="st2" d="M936.7,106.5c-0.2,0-0.3,0-0.6,0c0,48,0,96,0,144c-9.4,0.7-18.8,1.6-28.1,2.6c0-66.3,0-132.6,0-198.8
			c13-1.4,26.1-2.5,39.2-3.3c10.5,39.1,21.1,78.3,31.5,117.5c0.2,0,0.3,0,0.6,0c0-39.7,0-79.3,0-119c11.1-0.3,16.7-0.5,27.8-0.5
			c0,66.3,0,132.6,0,198.8c-10.7,0-21.4,0.2-32.1,0.6C962.3,201,949.5,153.7,936.7,106.5z"/>
	</g>
</g>
<path class="st3" d="M211.6,496c0,5.1,0,7.7,0,12.8c1,14-9.3,24.3-22.6,25.4c-14,1.2-22.5-10.9-22.6-23.8c0-16.7,0-33.4,0-50
	c0-13.1,8.7-24.7,22.6-24.6c13,0,23.7,9,22.6,23c0,3.7,0,5.6,0,9.4c-5.7,0.4-8.6,0.6-14.3,0.9c0-4.1,0-6.2,0-10.3
	c0-6.9-3-9.3-7.8-9.1c-4.8,0.2-7.8,2.9-7.8,9.7c0,17.3,0,34.6,0,52c0,6.9,3,9.3,7.8,9.1c4.8-0.2,7.8-2.8,7.8-9.7c0-5.5,0-8.2,0-13.8
	C203,496.5,205.8,496.4,211.6,496z"/>
<path class="st3" d="M235.9,529.7c-6.1,0.6-9.1,0.9-15.1,1.4c0-32.1,0-64.2,0-96.2c6.1-0.5,9.1-0.8,15.1-1.4c0,13.8,0,27.5,0,41.2
	c6.9-0.7,10.3-1.1,17.2-2c0-13.8,0-27.5,0-41.2c6.2-0.8,9.2-1.2,15.4-2.1c0,32.1,0,64.2,0,96.2c-6.2,0.9-9.2,1.3-15.4,2.1
	c0-13.8,0-27.5,0-41.2c-6.9,0.9-10.3,1.3-17.2,2C235.9,502.2,235.9,515.9,235.9,529.7z"/>
<path class="st3" d="M311.1,518.2c-0.8-2.3-1.4-3.7-1.4-11.6c0-6,0-9.1,0-15.1c0-8.9-3-11.6-9.9-10.4c-2.1,0.4-3.1,0.6-5.2,1
	c0,13.1,0,26.1,0,39.2c-6,1.1-9.1,1.6-15.1,2.6c0-32.1,0-64.2,0-96.2c9.1-1.5,13.7-2.3,22.8-4c13.4-2.8,22.9,3.5,22.4,17.7
	c0,3,0,4.5,0,7.6c0,9.9-3.2,16.9-9.9,21.4c0,0.1,0,0.2,0,0.3c7.6,1.6,10,8.2,10,18.3c0,5.9,0,8.9,0,14.9c0,4.7,0.1,8.1,1.6,11.3
	C320.3,516.3,317.2,517,311.1,518.2z M294.6,438.8c0,9.9,0,19.7,0,29.6c2.4-0.4,3.5-0.6,5.9-1.1c5.6-1,9.1-4.2,9.1-11.9
	c0-3.8,0-5.7,0-9.5c0-6.9-2.3-9.4-7.7-8.4C299,438,297.5,438.2,294.6,438.8z"/>
<path class="st3" d="M334.7,417c6-1.3,9.1-2,15.1-3.4c0,32.1,0,64.2,0,96.2c-6,1.4-9.1,2.1-15.1,3.4
	C334.7,481.2,334.7,449.1,334.7,417z"/>
<path class="st3" d="M381.2,404.8c12.5-2.9,23.7,4.3,22.3,18.3c0,1.2,0,1.8,0,3c-5.7,1.6-8.6,2.3-14.3,3.8c0-1.6,0-2.4,0-4
	c0-6.9-2.8-8.8-7.6-7.5c-4.8,1.2-7.6,4.5-7.6,11.4c0,7,3.1,11.9,12.9,17.6c9.3,5.4,16.5,14.7,16.6,25.7c0.1,13.8-9.7,26-22.5,30.2
	c-13.4,4.3-22.7-5.8-22.5-18.6c0-2.4,0-3.5,0-5.9c5.7-1.4,8.6-2.1,14.3-3.5c0,2.8,0,4.1,0,6.9c0,6.9,3,8.6,7.8,7.4
	c4.8-1.2,7.8-4.5,7.8-11.4c0-7-3.1-11.7-12.9-17.6c-9.4-5.5-16.9-14.6-16.6-26C359.2,421,367.5,407.9,381.2,404.8z"/>
<path class="st3" d="M407.9,398.8c15.6-4.3,31.2-8.8,46.8-13.5c0,5.5,0,8.2,0,13.8c-6.3,1.9-9.5,2.8-15.8,4.7c0,27.5,0,55,0,82.5
	c-6,1.8-9.1,2.6-15.1,4.4c0-27.5,0-55,0-82.5c-6.3,1.8-9.5,2.7-15.8,4.4C407.9,407,407.9,404.3,407.9,398.8z"/>
<path class="st3" d="M505.1,430.2c0,5.1,0,7.7,0,12.8c0.2,14.9-9.5,26.3-22.5,31.2c-13.1,4.9-22.7-4.5-22.5-17.3c0-16.7,0-33.4,0-50
	c0.1-14.6,8.4-26.7,22.5-31.1c12.6-3.9,24,2.9,22.5,17.2c0,3.7,0,5.6,0,9.4c-5.7,1.8-8.6,2.7-14.3,4.5c0-4.1,0-6.2,0-10.3
	c0-6.9-3-8.5-7.8-7.1c-4.8,1.5-7.8,5-7.8,11.9c0,17.3,0,34.6,0,52c0,6.9,3,8.4,7.8,7c4.8-1.5,7.8-4.9,7.8-11.8c0-5.5,0-8.2,0-13.8
	C496.5,432.9,499.4,432,505.1,430.2z"/>
<path class="st3" d="M529.4,458.5c-6,1.9-9.1,2.9-15.1,4.8c0-32.1,0-64.2,0-96.2c6-1.9,9.1-2.9,15.1-4.8c0,13.8,0,27.5,0,41.2
	c6.9-2.2,10.3-3.2,17.2-5.4c0-13.8,0-27.5,0-41.2c6.2-1.9,9.2-2.9,15.4-4.9c0,32.1,0,64.2,0,96.2c-6.2,1.9-9.2,2.9-15.4,4.9
	c0-13.8,0-27.5,0-41.2c-6.9,2.2-10.3,3.2-17.2,5.4C529.4,431,529.4,444.7,529.4,458.5z"/>
<path class="st3" d="M587.4,344c0,24.8,0,49.5,0,74.2c0,6.9,3,8.4,7.8,6.9s7.8-4.9,7.8-11.8c0-24.8,0-49.5,0-74.2
	c5.7-1.8,8.6-2.6,14.3-4.4c0,24.4,0,48.9,0,73.3c0.2,14.9-9.5,26.2-22.5,31.1s-22.7-4.3-22.5-17.2c0-24.4,0-48.9,0-73.3
	C578.3,346.8,581.4,345.9,587.4,344z"/>
<path class="st3" d="M659.3,418.7c-0.8-2.2-1.4-3.6-1.4-11.4c0-6,0-9.1,0-15.1c0-8.9-3-11.4-9.9-9.4c-2.1,0.6-3.1,0.9-5.2,1.5
	c0,13.1,0,26.1,0,39.2c-6,1.8-9.1,2.7-15.1,4.5c0-32.1,0-64.2,0-96.2c9.1-2.7,13.7-4.1,22.8-6.7c13-4.1,23,1.5,22.4,15.8
	c0,3,0,4.5,0,7.6c0,9.9-3.2,17.1-9.9,22.1c0,0.1,0,0.2,0,0.3c7.6,1,10,7.5,10,17.5c0,5.9,0,8.9,0,14.9c0,4.7,0.1,8.1,1.7,11.2
	C668.6,416.1,665.5,417,659.3,418.7z M642.8,341c0,9.9,0,19.7,0,29.6c2.4-0.7,3.5-1,5.9-1.7c5.6-1.6,9.1-5.1,9.1-12.8
	c0-3.8,0-5.7,0-9.5c0-6.9-2.3-9.2-7.7-7.7C647.2,339.7,645.8,340.1,642.8,341z"/>
<path class="st3" d="M726.8,365.1c0,5.1,0,7.7,0,12.8c0.8,14.5-9.8,25.7-22.5,29.8c-13.3,4.3-22.7-5.4-22.5-18.2c0-16.7,0-33.4,0-50
	c0.2-13.8,8.7-27,22.5-30.1c12.7-2.9,23.9,4.6,22.5,18.6c0,3.7,0,5.6,0,9.4c-5.7,1.4-8.6,2.1-14.3,3.5c0-4.1,0-6.2,0-10.3
	c0-6.9-3-8.7-7.8-7.5c-4.8,1.2-7.8,4.6-7.8,11.5c0,17.3,0,34.6,0,52c0,6.9,3,8.5,7.8,7.3c4.8-1.2,7.8-4.5,7.8-11.3
	c0-5.5,0-8.2,0-13.8C718.3,367.1,721.1,366.4,726.8,365.1z"/>
<path class="st3" d="M751.2,395.4c-6,1.3-9.1,2-15.1,3.4c0-32.1,0-64.2,0-96.2c6-1.4,9.1-2.1,15.1-3.4c0,13.8,0,27.5,0,41.2
	c6.9-1.5,10.3-2.2,17.2-3.6c0-13.8,0-27.5,0-41.2c6.2-1.2,9.2-1.8,15.4-3c0,32.1,0,64.2,0,96.2c-6.2,1.1-9.2,1.7-15.4,3
	c0-13.8,0-27.5,0-41.2c-6.9,1.4-10.3,2.1-17.2,3.6C751.2,367.9,751.2,381.7,751.2,395.4z"/>
<path class="st4" d="M829.8,311.9c-0.1,0-0.2,0-0.3,0c0,23.2,0,46.5,0,69.7c-5.4,0.7-8.2,1.1-13.6,1.9c0-32.1,0-64.2,0-96.2
	c7.6-1.1,11.4-1.6,19-2.6c5.1,18.6,10.2,37.3,15.3,55.9c0.1,0,0.2,0,0.3,0c0-19.2,0-38.4,0-57.6c5.4-0.5,8.1-0.8,13.5-1.2
	c0,32.1,0,64.2,0,96.2c-6.2,0.5-9.3,0.8-15.5,1.5C842.2,356.9,836,334.4,829.8,311.9z"/>
<path class="st4" d="M916.7,279.5c0,5.4,0,8.1,0,13.5c-9.7,23.2-19.2,46.4-28.7,69.7c9.6-0.5,19.2-0.7,28.7-0.7c0,5.5,0,8.2,0,13.8
	c-14.8,0.1-29.5,0.7-44.3,1.6c0-5.4,0-8.1,0-13.5c9.5-23.5,19.1-47,28.7-70.4c-10.9,0.3-16.4,0.5-27.4,1.3c0-5.5,0-8.2,0-13.8
	C888.1,280.1,902.4,279.6,916.7,279.5z"/>
<circle class="st4" cx="32" cy="495.5" r="14.7"/>
<circle class="st4" cx="72.9" cy="495.5" r="14.7"/>
<circle class="st4" cx="113.8" cy="495.5" r="14.7"/>
<circle class="st4" cx="966.2" cy="326.4" r="14.7"/>
<circle class="st4" cx="1007.1" cy="326.4" r="14.7"/>
<circle class="st4" cx="1048" cy="326.4" r="14.7"/>
<image style="display:none;overflow:visible;enable-background:new    ;" width="1600" height="1200" id="Plainsmen_Palette_1_" xlink:href="161108E8.png"  transform="matrix(0.36 0 0 0.36 815.92 603.7756)">
</image>
</svg>
