<?xml version="1.0" encoding="utf-8"?>
<!-- Generator: Adobe Illustrator 28.0.0, SVG Export Plug-In . SVG Version: 6.00 Build 0)  -->
<svg version="1.1" id="Layer_1" xmlns="http://www.w3.org/2000/svg" xmlns:xlink="http://www.w3.org/1999/xlink" x="0px" y="0px"
	 viewBox="0 0 1080 425.7" style="enable-background:new 0 0 1080 425.7;" xml:space="preserve">
<style type="text/css">
	.st0{fill:#E1E2EF;}
	.st1{fill:#18C0DE;}
</style>
<g>
	<path class="st0" d="M266.3,227.7c25.1,0,42-14.6,42-42.9v-44.4h-11.5v44.4c0,20.9-12.1,32.2-30.5,32.2s-30.5-11.4-30.5-32.2v-44.4
		h-11.5v44.4C224.2,213.1,241.1,227.7,266.3,227.7z"/>
	<path class="st0" d="M402.5,225.5h10.7v-42c0-26.9-18.8-45.3-45.6-45.3c-26.9,0-45.8,18.8-45.8,45.3c0,27.2,20.2,44.3,44.1,44.3
		c16.5,0,30.7-8.1,36.7-23.3V225.5z M367.6,217.1c-20.3,0-34.1-14.5-34.1-34.1s13.8-34.1,34.1-34.1s34.1,14.5,34.1,34.1
		C401.7,202.6,387.9,217.1,367.6,217.1z"/>
	<path class="st0" d="M502.6,225.5h11.5v-44.4c0-28.2-16.9-42.9-42-42.9c-25.1,0-42,14.6-42,42.9v44.4h11.5V181
		c0-21,12.1-32.2,30.5-32.2s30.5,11.2,30.5,32.2L502.6,225.5L502.6,225.5z"/>
	<path class="st0" d="M586.3,194.1c0,15.7-8.8,22.9-21.9,22.9c-13.3,0-21.9-7.4-21.9-22.9v-43.2h50.1v-10.5h-50.1v-30.2H531v83.9
		c0,22.4,13.6,33.6,33.4,33.6c19.6,0,33.1-11.2,33.1-33.6v-1.9h-11.2V194.1z"/>
	<path class="st0" d="M684.5,184.8c0,20.9-12.1,32.2-30.5,32.2s-30.5-11.4-30.5-32.2v-44.4H612v44.4c0,28.2,16.9,42.9,42,42.9
		c25.2,0,42-14.6,42-42.9v-44.4h-11.5L684.5,184.8L684.5,184.8z"/>
	<path class="st0" d="M807.9,148.8c13.8,0,23.8,8.8,23.8,26.9v49.8h11.5v-49.8c0-25.3-14.8-37.6-34.5-37.6c-14,0-25.3,6.6-30.7,19.1
		c-5.5-12.6-16.9-19.1-30.7-19.1c-19.6,0-34.5,12.2-34.5,37.6v49.8h11.5v-49.8c0-18.1,10-26.9,23.8-26.9s24.1,9.1,24.1,26.9v49.8
		h11.5v-49.8C784,158,794.1,148.8,807.9,148.8z"/>
	<path class="st0" d="M447.5,314.6c15.5,0,27.4,8.3,32,21h11.7c-5-19-21.7-31.7-43.8-31.7c-26.9,0-45.8,19-45.8,44.8
		s19,44.8,45.8,44.8c22,0,38.8-12.8,43.8-31.7h-11.7c-4.6,12.8-16.5,21-32,21c-20.3,0-34.1-14.5-34.1-34.1
		C413.4,329,427.2,314.6,447.5,314.6z"/>
	<path class="st0" d="M547.5,303.9c-26.9,0-45.8,19-45.8,44.8s19,44.8,45.8,44.8s45.8-19,45.8-44.8S574.3,303.9,547.5,303.9z
		 M547.5,382.8c-20.3,0-34.1-14.5-34.1-34.1c0-19.6,13.8-34.1,34.1-34.1c20.3,0,34.1,14.5,34.1,34.1
		C581.6,368.3,567.8,382.8,547.5,382.8z"/>
	<path class="st0" d="M679.2,350.6c0,20.9-12.1,32.2-30.5,32.2s-30.5-11.4-30.5-32.2v-44.5h-11.5v44.5c0,28.2,16.9,42.9,42,42.9
		s42-14.6,42-42.9v-44.5h-11.5L679.2,350.6L679.2,350.6z"/>
	<path class="st0" d="M741.4,343c-12.1-1.5-23.1-2.8-23.1-13.3c0-8.8,7.8-15.3,20.8-15.3c13.1,0,20.8,6.5,21.4,15h11.4
		c-0.3-14.5-12.6-25.5-32.6-25.5s-32.6,10.9-32.6,26.9c0,18.8,17.4,21.2,32.7,23.1c12.2,1.5,23.1,2.8,23.1,13.1
		c0,9.1-8.3,16-23.1,16c-14.3,0-22.6-6.5-23.1-15.7h-11.7c0.5,15,13.8,26.2,34.8,26.2c21.2,0,34.8-11.2,34.8-27.4
		C774.3,346.8,754.7,344.7,741.4,343z"/>
	<path class="st0" d="M843.6,359.9c0,15.7-8.8,22.9-21.9,22.9c-13.3,0-21.9-7.4-21.9-22.9v-43.2H850v-10.5h-50.1V276h-11.5v83.9
		c0,22.4,13.6,33.6,33.4,33.6c19.6,0,33.1-11.2,33.1-33.6V358h-11.2V359.9z"/>
	<rect x="872.5" y="306.1" class="st0" width="11.5" height="85.1"/>
	<path class="st0" d="M878.2,272c-5,0-8.8,3.8-8.8,8.8s3.8,8.8,8.8,8.8s8.8-3.8,8.8-8.8C887,275.8,883.2,272,878.2,272z"/>
	<path class="st0" d="M946.5,314.6c15.5,0,27.4,8.3,32,21h11.7c-5-19-21.7-31.7-43.8-31.7c-26.9,0-45.8,19-45.8,44.8
		s19,44.8,45.8,44.8c22,0,38.8-12.8,43.8-31.7h-11.7c-4.7,12.8-16.5,21-32,21c-20.3,0-34.1-14.5-34.1-34.1
		C912.3,329,926.1,314.6,946.5,314.6z"/>
	<path class="st0" d="M1037.8,343c-12.1-1.5-23.1-2.8-23.1-13.3c0-8.8,7.8-15.3,20.9-15.3c13.1,0,20.8,6.5,21.4,15h11.4
		c-0.3-14.5-12.6-25.5-32.6-25.5c-20,0-32.6,10.9-32.6,26.9c0,18.8,17.4,21.2,32.7,23.1c12.2,1.5,23.1,2.8,23.1,13.1
		c0,9.1-8.3,16-23.1,16c-14.3,0-22.6-6.5-23.1-15.7H1001c0.5,15,13.8,26.2,34.8,26.2c21.2,0,34.8-11.2,34.8-27.4
		C1070.7,346.8,1051,344.7,1037.8,343z"/>
	<path class="st0" d="M350.6,296.3c-9-37.2-16-66.6-33-66.6c-19.1,0-26,31.4-34.1,67.7c-8.4,37.5-17.8,80-39.5,82
		c-12.6,1.2-26.8-16.2-41.1-50.1c-13.2-31.5-24.3-71.7-33.2-104c-1.2-4.4-2.4-8.8-3.6-12.9c25.2-18,41.7-47.5,41.7-80.8
		c0-54.7-44.5-99.2-99.2-99.2S9.3,76.8,9.3,131.5s44.5,99.2,99.2,99.2c17.4,0,33.7-4.5,48-12.4c0.9,3.2,1.8,6.4,2.7,9.8
		c9,32.6,20.2,73.2,33.7,105.3c16.7,39.9,33.7,58.4,52.1,56.8c29.6-2.7,39.9-49.4,49.1-90.5c5.9-26.4,13.2-59.2,23.5-59.2
		c1.4,0,5.3,1.5,10.6,15.4c4.2,11.2,7.9,26.6,11.9,42.9c10.5,43.5,22.3,92.7,52.2,92.7v-10.9C371,380.7,359.7,333.9,350.6,296.3z
		 M108.6,219.9c-48.8,0-88.4-39.7-88.4-88.4s39.7-88.4,88.4-88.4S197,82.8,197,131.5c0,28.3-13.3,53.5-34,69.6
		c-3.1-10.7-5.9-19.7-8.3-25.8c-17.6-43.4-44.9-42.9-46.1-42.9l0.4,10.8c0.2,0,21.1,0.3,35.6,36.1c2.6,6.3,5.6,16.2,9,28.1
		C140.4,215.4,125,219.9,108.6,219.9z"/>
</g>
<g>
	<path class="st1" d="M854.6,211.4c0-8.5,6.2-14.7,15-14.7s14.9,6.2,14.9,14.7v2h-24.3c0.8,5,4.5,7.8,9.4,7.8c3.6,0,6.2-1.1,7.8-3.6
		h5.9c-2.2,5.2-7.2,8.5-13.8,8.5C860.8,226.1,854.6,219.9,854.6,211.4z M878.9,208.6c-1.1-4.5-4.8-6.9-9.3-6.9
		c-4.6,0-8.2,2.5-9.2,6.9H878.9z"/>
	<path class="st1" d="M888,217.3h5.4c0.1,2.3,2.3,4,6.2,4c4.1,0,6.2-1.8,6.2-4c0-2.7-2.9-3-6.5-3.4c-4.9-0.6-10.8-1.5-10.8-7.9
		c0-5.5,4.3-9.2,11-9.2s10.8,3.8,10.9,8.6h-5.3c-0.2-2.1-2.2-3.7-5.5-3.7c-3.6,0-5.6,1.7-5.6,3.9c0,2.7,2.9,2.9,6.4,3.4
		c4.9,0.6,10.8,1.5,10.8,7.9c0,5.7-4.6,9.3-11.6,9.3C892.6,226.1,888.2,222.4,888,217.3z"/>
	<path class="st1" d="M915.7,214.8v-27.3h5.4v9.9h15.4v4.9h-15.4v12.4c0,4.4,2.3,6.3,5.8,6.3s5.9-1.9,5.9-6.3v-0.6h5.3v0.6
		c0,7.6-4.5,11.3-11.2,11.3C920.2,226.1,915.7,222.4,915.7,214.8z"/>
	<path class="st1" d="M943.1,222.4c0-2.1,1.6-3.7,3.7-3.7c2.2,0,3.7,1.6,3.7,3.7s-1.6,3.7-3.7,3.7
		C944.7,226.1,943.1,224.6,943.1,222.4z"/>
	<path class="st1" d="M970.8,220.8l13.5-12.7c2.8-2.7,4.8-5.3,4.8-8.4c0-4.1-2.2-7.1-6.5-7.1c-4.1,0-6.5,2.9-6.5,7.2v0.8h-5.3v-0.5
		c0-7.5,4.5-12.4,11.8-12.4c7.4,0,11.8,5.1,11.8,12.1c0,4.9-2.3,8-6.3,11.6l-10.1,9.3h15.9v4.8h-23.2L970.8,220.8L970.8,220.8z"/>
	<path class="st1" d="M999.1,212.9v-12.1c0-8,5.4-13.2,13.1-13.2s13.1,5.2,13.1,13.2v12.1c0,8-5.4,13.2-13.1,13.2
		C1004.4,226.1,999.1,220.9,999.1,212.9z M1019.9,212.9v-12.1c0-5-3-8.2-7.8-8.2s-7.8,3.2-7.8,8.2v12.1c0,5,3,8.2,7.8,8.2
		S1019.9,218,1019.9,212.9z"/>
	<path class="st1" d="M1029.7,220.8l13.5-12.7c2.8-2.7,4.8-5.3,4.8-8.4c0-4.1-2.2-7.1-6.4-7.1c-4.1,0-6.5,2.9-6.5,7.2v0.8h-5.3v-0.5
		c0-7.5,4.5-12.4,11.8-12.4s11.8,5.1,11.8,12.1c0,4.9-2.3,8-6.3,11.6l-10.1,9.3h15.9v4.8h-23.2L1029.7,220.8L1029.7,220.8z"/>
	<path class="st1" d="M1065.1,193.2h-8v-4.8h13.4v37h-5.4V193.2z"/>
</g>
</svg>
