<svg xmlns="http://www.w3.org/2000/svg" width="440.861" height="150" viewBox="0 0 440.861 150"><g transform="translate(-9.3 -32.4)"><g transform="translate(9.3 32.4)"><path d="M241.746,176.664c10.426,0,17.447-6.065,17.447-17.821V140.4h-4.777v18.444c0,8.682-5.026,13.376-12.67,13.376s-12.67-4.736-12.67-13.376V140.4H224.3v18.444C224.258,170.6,231.278,176.664,241.746,176.664Z" transform="translate(-134.989 -95.537)" fill="#e1e2ef"/><path d="M355.323,174.464h4.445V157.018c0-11.174-7.809-18.818-18.942-18.818-11.174,0-19.025,7.809-19.025,18.818,0,11.3,8.391,18.4,18.319,18.4,6.854,0,12.753-3.365,15.245-9.679v8.723Zm-14.5-3.489c-8.433,0-14.165-6.023-14.165-14.165s5.732-14.165,14.165-14.165,14.165,6.023,14.165,14.165S349.258,170.975,340.825,170.975Z" transform="translate(-191.988 -94.251)" fill="#e1e2ef"/><path d="M460.216,174.464h4.777V156.021c0-11.714-7.02-17.821-17.447-17.821S430.1,144.265,430.1,156.021v18.444h4.777V155.979c0-8.723,5.026-13.376,12.67-13.376s12.67,4.652,12.67,13.376v18.485Z" transform="translate(-255.301 -94.251)" fill="#e1e2ef"/><path d="M553.971,145.052c0,6.522-3.656,9.513-9.1,9.513-5.525,0-9.1-3.074-9.1-9.513V127.107h20.811v-4.362H535.777V110.2H531v34.852c0,9.3,5.649,13.957,13.874,13.957,8.142,0,13.75-4.652,13.75-13.957v-.789h-4.652Z" transform="translate(-314.287 -77.882)" fill="#e1e2ef"/><path d="M642.116,158.844c0,8.682-5.026,13.376-12.67,13.376s-12.67-4.736-12.67-13.376V140.4H612v18.444c0,11.714,7.02,17.821,17.447,17.821,10.468,0,17.447-6.065,17.447-17.821V140.4h-4.777v18.444Z" transform="translate(-361.64 -95.537)" fill="#e1e2ef"/><path d="M752.3,142.545c5.733,0,9.887,3.655,9.887,11.174v20.687h4.777V153.719c0-10.51-6.148-15.619-14.331-15.619-5.816,0-10.51,2.742-12.753,7.934-2.285-5.234-7.02-7.934-12.753-7.934-8.142,0-14.331,5.068-14.331,15.619v20.687h4.777V153.719c0-7.519,4.154-11.174,9.886-11.174s10.011,3.78,10.011,11.174v20.687h4.777V153.719C742.376,146.366,746.572,142.545,752.3,142.545Z" transform="translate(-420.568 -94.193)" fill="#e1e2ef"/><path d="M420.667,308.345c6.439,0,11.382,3.448,13.293,8.723h4.86c-2.077-7.893-9.014-13.168-18.194-13.168-11.174,0-19.025,7.893-19.025,18.61s7.893,18.61,19.025,18.61c9.139,0,16.117-5.317,18.194-13.168h-4.86c-1.911,5.317-6.854,8.723-13.293,8.723-8.433,0-14.165-6.023-14.165-14.165C406.5,314.326,412.234,308.345,420.667,308.345Z" transform="translate(-238.64 -191.12)" fill="#e1e2ef"/><path d="M520.725,303.9c-11.174,0-19.025,7.893-19.025,18.61s7.893,18.61,19.025,18.61,19.025-7.893,19.025-18.61S531.858,303.9,520.725,303.9Zm0,32.775c-8.433,0-14.165-6.023-14.165-14.165s5.732-14.165,14.165-14.165,14.165,6.023,14.165,14.165S529.158,336.675,520.725,336.675Z" transform="translate(-297.159 -191.12)" fill="#e1e2ef"/><path d="M636.816,324.585c0,8.682-5.026,13.376-12.67,13.376s-12.67-4.736-12.67-13.376V306.1H606.7v18.485c0,11.714,7.02,17.821,17.447,17.821s17.447-6.065,17.447-17.821V306.1h-4.777v18.485Z" transform="translate(-358.542 -192.406)" fill="#e1e2ef"/><path d="M719.887,320.142c-5.026-.623-9.6-1.163-9.6-5.525,0-3.656,3.24-6.356,8.64-6.356,5.442,0,8.64,2.7,8.89,6.231h4.735c-.125-6.023-5.234-10.593-13.542-10.593s-13.542,4.528-13.542,11.174c0,7.809,7.228,8.806,13.583,9.6,5.068.623,9.6,1.163,9.6,5.442,0,3.78-3.448,6.646-9.6,6.646-5.94,0-9.388-2.7-9.6-6.522H704.6c.208,6.231,5.733,10.883,14.456,10.883,8.806,0,14.456-4.652,14.456-11.382C733.553,321.721,725.411,320.848,719.887,320.142Z" transform="translate(-415.775 -191.12)" fill="#e1e2ef"/><path d="M811.33,310.852c0,6.522-3.656,9.513-9.1,9.513-5.525,0-9.1-3.074-9.1-9.513V292.907h20.853v-4.362H793.177V276H788.4v34.852c0,9.3,5.649,13.957,13.874,13.957,8.142,0,13.75-4.652,13.75-13.957v-.789h-4.652v.789Z" transform="translate(-464.764 -174.809)" fill="#e1e2ef"/><rect width="4.777" height="35.35" transform="translate(358.571 113.694)" fill="#e1e2ef"/><path d="M873.056,272a3.655,3.655,0,1,0,3.655,3.655A3.584,3.584,0,0,0,873.056,272Z" transform="translate(-512.117 -172.471)" fill="#e1e2ef"/><path d="M919.667,308.345c6.439,0,11.382,3.448,13.293,8.723h4.86c-2.077-7.893-9.014-13.168-18.194-13.168-11.174,0-19.025,7.893-19.025,18.61s7.892,18.61,19.025,18.61c9.139,0,16.117-5.317,18.194-13.168h-4.86c-1.952,5.317-6.854,8.723-13.293,8.723-8.432,0-14.165-6.023-14.165-14.165C905.46,314.326,911.193,308.345,919.667,308.345Z" transform="translate(-530.357 -191.12)" fill="#e1e2ef"/><path d="M1016.287,320.142c-5.026-.623-9.6-1.163-9.6-5.525,0-3.656,3.24-6.356,8.682-6.356s8.64,2.7,8.89,6.231H1029c-.125-6.023-5.234-10.593-13.542-10.593s-13.542,4.528-13.542,11.174c0,7.809,7.228,8.806,13.583,9.6,5.068.623,9.6,1.163,9.6,5.442,0,3.78-3.448,6.646-9.6,6.646-5.94,0-9.388-2.7-9.6-6.522H1001c.208,6.231,5.732,10.883,14.456,10.883,8.806,0,14.456-4.652,14.456-11.382C1029.953,321.721,1021.77,320.848,1016.287,320.142Z" transform="translate(-589.051 -191.12)" fill="#e1e2ef"/><path d="M151.075,142.023c-3.739-15.453-6.646-27.665-13.708-27.665-7.934,0-10.8,13.043-14.165,28.122-3.489,15.577-7.394,33.232-16.408,34.063-5.234.5-11.133-6.729-17.073-20.811-5.483-13.085-10.094-29.784-13.791-43.2-.5-1.828-1-3.655-1.5-5.359a42.715,42.715,0,1,0-3.988,2.451c.374,1.329.748,2.659,1.122,4.071,3.739,13.542,8.391,30.407,14,43.741,6.937,16.574,14,24.259,21.642,23.595,12.3-1.122,16.574-20.521,20.4-37.593,2.451-10.966,5.483-24.591,9.762-24.591.582,0,2.2.623,4.4,6.4a175.321,175.321,0,0,1,4.943,17.821c4.362,18.07,9.263,38.507,21.684,38.507v-4.528C159.549,177.083,154.855,157.642,151.075,142.023ZM50.549,110.287a36.786,36.786,0,1,1,22.6-7.809C71.859,98.033,70.7,94.294,69.7,91.76,62.388,73.732,51.047,73.94,50.549,73.94l.166,4.486c.083,0,8.765.125,14.788,15,1.08,2.617,2.326,6.729,3.739,11.673A35.924,35.924,0,0,1,50.549,110.287Z" transform="translate(-9.3 -32.4)" fill="#e1e2ef"/></g><g transform="translate(360.435 96.828)"><path d="M854.6,202.806a6.211,6.211,0,0,1,12.42,0v.831H856.926a3.7,3.7,0,0,0,3.9,3.24,3.517,3.517,0,0,0,3.24-1.5h2.451a6.279,6.279,0,0,1-11.922-2.575Zm10.094-1.163a3.732,3.732,0,0,0-3.863-2.866,3.666,3.666,0,0,0-3.822,2.866Z" transform="translate(-854.6 -192.878)" fill="#18c0de"/><path d="M888,205.316h2.243c.042.955.955,1.662,2.576,1.662,1.7,0,2.576-.748,2.576-1.662,0-1.122-1.2-1.246-2.7-1.412-2.035-.249-4.486-.623-4.486-3.282,0-2.285,1.786-3.822,4.569-3.822s4.486,1.579,4.528,3.572h-2.2c-.083-.872-.914-1.537-2.285-1.537-1.5,0-2.326.706-2.326,1.62,0,1.122,1.2,1.2,2.659,1.412,2.035.249,4.486.623,4.486,3.282,0,2.368-1.911,3.863-4.819,3.863C889.911,208.971,888.083,207.434,888,205.316Z" transform="translate(-874.126 -192.937)" fill="#18c0de"/><path d="M915.7,198.84V187.5h2.243v4.112h6.4v2.035h-6.4V198.8c0,1.828.955,2.617,2.409,2.617s2.451-.789,2.451-2.617v-.249h2.2v.249c0,3.157-1.869,4.694-4.652,4.694C917.569,203.534,915.7,202,915.7,198.84Z" transform="translate(-890.319 -187.5)" fill="#18c0de"/><path d="M943.1,220.237a1.508,1.508,0,0,1,1.537-1.537,1.484,1.484,0,0,1,1.537,1.537,1.508,1.508,0,0,1-1.537,1.537A1.484,1.484,0,0,1,943.1,220.237Z" transform="translate(-906.337 -205.74)" fill="#18c0de"/><path d="M970.742,201.45l5.608-5.276c1.163-1.122,1.994-2.2,1.994-3.489,0-1.7-.914-2.949-2.7-2.949-1.7,0-2.7,1.2-2.7,2.991v.332h-2.2v-.208c0-3.115,1.869-5.151,4.9-5.151a4.677,4.677,0,0,1,4.9,5.026c0,2.035-.955,3.323-2.617,4.819l-4.2,3.863h6.6V203.4H970.7l.042-1.952Z" transform="translate(-922.472 -187.617)" fill="#18c0de"/><path d="M999.1,198.11v-5.026a5.442,5.442,0,1,1,10.883,0v5.026a5.442,5.442,0,1,1-10.883,0Zm8.64,0v-5.026a3.244,3.244,0,1,0-6.48,0v5.026a3.244,3.244,0,1,0,6.48,0Z" transform="translate(-939.075 -187.558)" fill="#18c0de"/><path d="M1029.7,201.45l5.608-5.276c1.163-1.122,1.994-2.2,1.994-3.489,0-1.7-.914-2.949-2.659-2.949-1.7,0-2.7,1.2-2.7,2.991v.332h-2.2v-.208c0-3.115,1.869-5.151,4.9-5.151a4.7,4.7,0,0,1,4.9,5.026c0,2.035-.955,3.323-2.617,4.819l-4.2,3.863h6.6V203.4H1029.7V201.45Z" transform="translate(-956.964 -187.617)" fill="#18c0de"/><path d="M1060.423,190.394H1057.1V188.4h5.566v15.37h-2.243Z" transform="translate(-972.982 -188.026)" fill="#18c0de"/></g></g></svg>